<?xml version="1.0" encoding="UTF-8" standalone="no"?>
<svg width="38px" height="54px" viewBox="0 0 38 54" version="1.1" xmlns="http://www.w3.org/2000/svg" xmlns:xlink="http://www.w3.org/1999/xlink" xmlns:sketch="http://www.bohemiancoding.com/sketch/ns">
    <!-- Generator: Sketch 3.3.3 (12081) - http://www.bohemiancoding.com/sketch -->
    <title> Ashrm</title>
    <desc>Created with Sketch.</desc>
    <defs>
        <radialGradient cx="50%" cy="0%" fx="50%" fy="0%" r="106.965224%" id="radialGradient-1">
            <stop stop-color="#ED1B1B" offset="0%"></stop>
            <stop stop-color="#000000" offset="100%"></stop>
        </radialGradient>
        <filter x="-50%" y="-50%" width="200%" height="200%" filterUnits="objectBoundingBox" id="filter-2">
            <feOffset dx="0" dy="2" in="SourceAlpha" result="shadowOffsetOuter1"></feOffset>
            <feGaussianBlur stdDeviation="1.5" in="shadowOffsetOuter1" result="shadowBlurOuter1"></feGaussianBlur>
            <feColorMatrix values="0 0 0 0 0   0 0 0 0 0   0 0 0 0 0  0 0 0 0.35 0" in="shadowBlurOuter1" type="matrix" result="shadowMatrixOuter1"></feColorMatrix>
            <feMerge>
                <feMergeNode in="shadowMatrixOuter1"></feMergeNode>
                <feMergeNode in="SourceGraphic"></feMergeNode>
            </feMerge>
            <feGaussianBlur stdDeviation="0 0" in="SourceGraphic" result="blur"></feGaussianBlur>
        </filter>
    </defs>
    <g id="Page-1" stroke="none" stroke-width="1" fill="none" fill-rule="evenodd" sketch:type="MSPage">
        <g id="-Ashrm" sketch:type="MSLayerGroup" transform="translate(4.000000, 1.000000)" filter="url(#filter-2)" fill="url(#radialGradient-1)">
            <path d="M5,41 C4.64339335,41.3281237 4.29375341,42.3708926 3.99999991,43 C3.62006225,43.8136808 2.31374123,44.1833739 2.00000003,44 C1.74757562,43.8524643 1.3815732,44.6112155 1,44 C0.498309225,43.1963765 1,41 1,41 L12.78125,2.625 C12.78125,2.625 13.7363649,7.97513167e-10 15.0000001,7.97513167e-10 C15.1936279,7.97513167e-10 16.3957115,0.263979855 16.9999992,1 C17.4503396,1.54851293 17.5859375,2.625 17.5859375,2.625 L30,39 C30,39 28.3308673,41 27,41 C26.7071197,41 25.5824982,41.3973969 25,41 C24.1636378,40.4294097 23.8671875,39 23.8671875,39 C23.8671875,39 25.734375,34 23.8671875,29 C22,24 12.78125,32 12.78125,32 C12.78125,32 5.8178379,40.2474846 5,41 Z M9.7109375,27.375 C11.3869654,31.0312238 14.9140625,25.4198751 14.9140625,25.4198751 L14.9140625,16.2771015 L14.9140625,9.9140625 L14.9140625,16.2771015 C14.9140625,16.2771015 8.03490963,23.7187762 9.7109375,27.375 Z" sketch:type="MSShapeGroup"></path>
        </g>
    </g>
</svg>