<?xml version="1.0" encoding="UTF-8" standalone="no"?>
<svg width="134px" height="115px" viewBox="0 0 134 115" version="1.1" xmlns="http://www.w3.org/2000/svg" xmlns:xlink="http://www.w3.org/1999/xlink">
    <!-- Generator: Sketch 3.6.1 (26313) - http://www.bohemiancoding.com/sketch -->
    <title>Group 2</title>
    <desc>Created with Sketch.</desc>
    <defs></defs>
    <g id="Page-1" stroke="none" stroke-width="1" fill="none" fill-rule="evenodd">
        <g id="Group-2" transform="translate(-91.000000, -91.000000)">
            <g id="Business-Trip" transform="translate(91.000000, 91.000000)">
                <path d="M67,115 C97.3756612,115 122,90.3756612 122,60 C122,29.6243388 97.3756612,5 67,5 C36.6243388,5 12,29.6243388 12,60 C12,90.3756612 36.6243388,115 67,115 Z" id="Oval-43" fill-opacity="0.719999969" fill="#FFD00E"></path>
                <path d="M22.3076923,44.7083333 C9.98749404,44.7083333 0,34.700032 0,22.3541667 C0,10.0083013 9.98749404,0 22.3076923,0 C33.1025275,0 42.1065246,7.68346308 44.1706204,17.8905988 C44.3182828,17.8857677 44.46655,17.8833333 44.6153846,17.8833333 C52.0075036,17.8833333 58,23.8883141 58,31.2958333 C58,38.7033525 52.0075036,44.7083333 44.6153846,44.7083333 L22.3076923,44.7083333 Z" id="Oval-43" fill="#89D4FD"></path>
            </g>
            <path d="M197.998307,151.32139 C194.420377,151.32139 183.606023,151.113811 177.407323,151.32139 C173.712812,151.44511 173.484332,152.962542 172.366468,151.32139 C171.578362,150.164361 164.314069,140.701821 166.362614,137.812718 C167.990973,135.516213 168.544786,131.37048 172.366468,131.328557 C173.325591,131.318035 175.845003,130.616442 177.407323,131.328557 C179.873738,132.452763 181.372249,135.135164 181.372249,134.660695 C181.372249,125.459247 188.815989,118 197.998307,118 C206.043762,118 212.754496,123.726531 214.292879,131.333971 C214.402932,131.33037 214.513437,131.328556 214.624364,131.328556 C220.133755,131.328556 224.599998,135.804104 224.599998,141.324973 C224.599998,146.845842 220.133755,151.32139 214.624364,151.32139 L197.998307,151.32139 Z" id="Oval-43" fill="#9CD7F8"></path>
            <g id="house-154098" transform="translate(124.000000, 107.000000)">
                <g id="Group" transform="translate(0.000000, -0.000000)">
                    <path d="M2.86213373,27.7000688 L31.7264787,0.0518249625 L43.8777464,10.411663 L48.5946849,14.4331937 L51.9667693,17.3081394 L62.7806972,26.527799 L56.0425173,26.6744156 L55.7495508,74.3610369 L10.0471154,74.9461488 L10.3400847,27.8446423 L2.86213373,27.7000688 Z" id="Shape" fill="#C09C61"></path>
                    <path d="M31.5696911,49.8414376 L31.4187937,74.3387028 L33.3304221,73.9741651 L33.4783758,49.4769 L31.5696911,49.8414376 Z" id="Shape" fill="#EFB24C"></path>
                    <path d="M2.7230112,50.8960476 L3.01597478,74.9165149 L4.7767058,74.6246419 L4.62875216,50.948109 L2.7230112,50.8960476 Z" id="Shape" fill="#EFB24C"></path>
                    <path d="M16.1268979,53.8216566 L16.2045565,74.0627719 L27.0803022,73.9168354 L27.5929906,53.9248483 L16.1268979,53.8216566 Z" id="Shape" fill-opacity="0.320000023" fill="#4990E2"></path>
                    <path d="M60.1381288,50.6473485 L59.9931189,74.1017807 L61.6088399,74.6246419 L61.9018035,50.8783367 L60.1381288,50.6473485 Z" id="Shape" fill="#EFB24C"></path>
                    <path d="M2.7230112,74.040896 L2.7230112,79.6427845 L61.9018035,79.3479491 L61.9018035,74.040896 L2.7230112,74.040896 Z" id="Shape" fill="#C6838B"></path>
                    <path d="M36.0709186,54.4053996 L36.0709186,66.3721909 L53.6171216,66.2262544 L53.7621315,53.9675902 L36.0709186,54.4053996 Z" id="Shape" fill="#FFF6D1"></path>
                    <path d="M18.6697255,21.1318824 L19.2497653,34.5580385 L28.5304016,34.5580385 L28.9654314,20.8400094 L18.6697255,21.1318824 Z" id="Shape" fill="#FFDD51"></path>
                    <path d="M38.166147,21.318036 L38.6011768,33.4962659 L48.2517537,33.6824196 L48.5417736,20.9859459 L38.166147,21.318036 Z" id="Shape" fill="#FFDD51"></path>
                    <path d="M35.5230449,11.8346925 C35.5230449,13.6884565 34.0298109,15.1912315 32.1878163,15.1912315 C30.3458217,15.1912315 28.8525876,13.6884565 28.8525876,11.8346925 C28.8525876,9.98092854 30.3458217,8.47815349 32.1878163,8.47815349 C34.0298109,8.47815349 35.5230449,9.98092854 35.5230449,11.8346925 L35.5230449,11.8346925 Z" id="Shape" fill="#FFDD51"></path>
                    <path d="M18.0896858,55.8647644 L17.9817172,65.0587626 L25.2850153,65.0587626 L25.6120765,55.8647644 L18.0896858,55.8647644 Z" id="Shape" fill="#FFF6D1"></path>
                    <path d="M10.5491688,27.5530875 L10.4041588,24.050612 L31.7206203,3.61950488 L55.7322047,23.2354429 L55.9372807,26.1969143" id="Shape"></path>
                    <path d="M1.26853247,49.2976228 L1.41354242,51.48667 L62.3177181,51.1947971 L62.1727082,48.2760675 L1.26853247,49.2976228 Z" id="Shape" fill="#EFB24B"></path>
                    <path d="M0.086330219,48.9079666 L9.75415177,41.9511659 L55.7495537,41.9511659 L63.9437204,48.340405 L0.086330219,48.9079666 Z" id="Shape" fill="#8B572A"></path>
                    <path d="M17.7464559,34.3316735 L17.9421033,36.5040635 L29.2876754,36.4135157 L29.4833199,34.328711 L17.7464559,34.3316735 Z" id="Shape" fill="#8B572A"></path>
                    <path d="M37.757828,33.6019911 L37.8084654,36.0412142 L49.2990474,35.8297698 L49.494692,33.744965 L37.757828,33.6019911 Z" id="Shape" fill="#8B572A"></path>
                    <path d="M35.0026391,66.4376989 L35.433771,68.5245993 L54.3864574,68.2276682 L54.7150499,66.1428634 L35.0026391,66.4376989 Z" id="Shape" fill="#8B572A"></path>
                </g>
            </g>
        </g>
    </g>
</svg>