<?xml version="1.0" encoding="UTF-8" standalone="no"?>
<svg width="59px" height="35px" viewBox="0 0 59 35" version="1.1" xmlns="http://www.w3.org/2000/svg" xmlns:xlink="http://www.w3.org/1999/xlink">
    <!-- Generator: Sketch 3.6.1 (26313) - http://www.bohemiancoding.com/sketch -->
    <title>Oval 43</title>
    <desc>Created with Sketch.</desc>
    <defs></defs>
    <g id="Page-1" stroke="none" stroke-width="1" fill="none" fill-rule="evenodd">
        <path d="M31.9983066,33.3213901 C28.4203771,33.3213901 17.6060229,33.1138114 11.4073228,33.3213901 C7.71281159,33.44511 7.48433248,34.9625418 6.36646798,33.3213901 C5.5783617,32.1643609 -1.68593138,22.7018209 0.362613998,19.8127185 C1.99097311,17.5162127 2.54478645,13.3704802 6.36646803,13.3285565 C7.3255909,13.318035 9.8450027,12.6164419 11.4073228,13.3285565 C13.8737385,14.4527633 15.3722491,17.1351645 15.3722491,16.6606951 C15.3722491,7.45924726 22.8159886,0 31.9983066,0 C40.0437622,0 46.7544955,5.72653132 48.2928786,13.333971 C48.4029322,13.3303704 48.5134367,13.3285561 48.624364,13.3285561 C54.1337548,13.3285561 58.5999985,17.8041044 58.5999985,23.3249731 C58.5999985,28.8458418 54.1337548,33.3213901 48.624364,33.3213901 L31.9983066,33.3213901 Z" id="Oval-43" fill="#9CD7F8"></path>
    </g>
</svg>