<?xml version="1.0" encoding="UTF-8" standalone="no"?>
<svg width="421px" height="175px" viewBox="0 0 421 175" version="1.1" xmlns="http://www.w3.org/2000/svg"
     xmlns:xlink="http://www.w3.org/1999/xlink">
    <!-- Generator: Sketch 3.6.1 (26313) - http://www.bohemiancoding.com/sketch -->
    <title>Group 2</title>
    <desc>Created with Sketch.</desc>
    <defs>
        <filter x="-50%" y="-50%" width="200%" height="200%" filterUnits="objectBoundingBox" id="filter-1">
            <feGaussianBlur stdDeviation="0 0" in="SourceGraphic" result="blur"></feGaussianBlur>
        </filter>
    </defs>
    <g id="Page-1" stroke="none" stroke-width="1" fill="none" fill-rule="evenodd">
        <g id="Group-2" transform="translate(-4.000000, 0.000000)">
            <g id="Business-Trip" transform="translate(86.000000, 60.000000)">
                <path d="M67,115 C97.3756612,115 122,90.3756612 122,60 C122,29.6243388 97.3756612,5 67,5 C36.6243388,5 12,29.6243388 12,60 C12,90.3756612 36.6243388,115 67,115 Z"
                      id="Oval-43" fill-opacity="0.719999969" fill="#FFD00E"></path>
                <path d="M106.998307,40.3213901 C103.420377,40.3213901 92.6060229,40.1138114 86.4073228,40.3213901 C82.7128116,40.44511 82.4843325,41.9625418 81.366468,40.3213901 C80.5783617,39.1643609 73.3140686,29.7018209 75.362614,26.8127185 C76.9909731,24.5162127 77.5447865,20.3704802 81.366468,20.3285565 C82.3255909,20.318035 84.8450027,19.6164419 86.4073228,20.3285565 C88.8737385,21.4527633 90.3722491,24.1351645 90.3722491,23.6606951 C90.3722491,14.4592473 97.8159886,7 106.998307,7 C115.043762,7 121.754496,12.7265313 123.292879,20.333971 C123.402932,20.3303704 123.513437,20.3285561 123.624364,20.3285561 C129.133755,20.3285561 133.599998,24.8041044 133.599998,30.3249731 C133.599998,35.8458418 129.133755,40.3213901 123.624364,40.3213901 L106.998307,40.3213901 Z"
                      id="Oval-43" fill="#9CD7F8"></path>
                <path d="M22.3076923,44.7083333 C9.98749404,44.7083333 0,34.700032 0,22.3541667 C0,10.0083013 9.98749404,0 22.3076923,0 C33.1025275,0 42.1065246,7.68346308 44.1706204,17.8905988 C44.3182828,17.8857677 44.46655,17.8833333 44.6153846,17.8833333 C52.0075036,17.8833333 58,23.8883141 58,31.2958333 C58,38.7033525 52.0075036,44.7083333 44.6153846,44.7083333 L22.3076923,44.7083333 Z"
                      id="Oval-43" fill="#89D4FD"></path>
                <g id="house-154098" transform="translate(33.000000, 16.000000)">
                    <g id="Group" transform="translate(0.000000, -0.000000)">
                        <path d="M2.86213373,27.7000688 L31.7264787,0.0518249625 L43.8777464,10.411663 L48.5946849,14.4331937 L51.9667693,17.3081394 L62.7806972,26.527799 L56.0425173,26.6744156 L55.7495508,74.3610369 L10.0471154,74.9461488 L10.3400847,27.8446423 L2.86213373,27.7000688 Z"
                              id="Shape" fill="#C09C61"></path>
                        <path d="M31.5696911,49.8414376 L31.4187937,74.3387028 L33.3304221,73.9741651 L33.4783758,49.4769 L31.5696911,49.8414376 Z"
                              id="Shape" fill="#EFB24C"></path>
                        <path d="M2.7230112,50.8960476 L3.01597478,74.9165149 L4.7767058,74.6246419 L4.62875216,50.948109 L2.7230112,50.8960476 Z"
                              id="Shape" fill="#EFB24C"></path>
                        <path d="M16.1268979,53.8216566 L16.2045565,74.0627719 L27.0803022,73.9168354 L27.5929906,53.9248483 L16.1268979,53.8216566 Z"
                              id="Shape" fill-opacity="0.320000023" fill="#4990E2"></path>
                        <path d="M60.1381288,50.6473485 L59.9931189,74.1017807 L61.6088399,74.6246419 L61.9018035,50.8783367 L60.1381288,50.6473485 Z"
                              id="Shape" fill="#EFB24C"></path>
                        <path d="M2.7230112,74.040896 L2.7230112,79.6427845 L61.9018035,79.3479491 L61.9018035,74.040896 L2.7230112,74.040896 Z"
                              id="Shape" fill="#C6838B"></path>
                        <path d="M36.0709186,54.4053996 L36.0709186,66.3721909 L53.6171216,66.2262544 L53.7621315,53.9675902 L36.0709186,54.4053996 Z"
                              id="Shape" fill="#FFF6D1"></path>
                        <path d="M18.6697255,21.1318824 L19.2497653,34.5580385 L28.5304016,34.5580385 L28.9654314,20.8400094 L18.6697255,21.1318824 Z"
                              id="Shape" fill="#FFDD51"></path>
                        <path d="M38.166147,21.318036 L38.6011768,33.4962659 L48.2517537,33.6824196 L48.5417736,20.9859459 L38.166147,21.318036 Z"
                              id="Shape" fill="#FFDD51"></path>
                        <path d="M35.5230449,11.8346925 C35.5230449,13.6884565 34.0298109,15.1912315 32.1878163,15.1912315 C30.3458217,15.1912315 28.8525876,13.6884565 28.8525876,11.8346925 C28.8525876,9.98092854 30.3458217,8.47815349 32.1878163,8.47815349 C34.0298109,8.47815349 35.5230449,9.98092854 35.5230449,11.8346925 L35.5230449,11.8346925 Z"
                              id="Shape" fill="#FFDD51"></path>
                        <path d="M18.0896858,55.8647644 L17.9817172,65.0587626 L25.2850153,65.0587626 L25.6120765,55.8647644 L18.0896858,55.8647644 Z"
                              id="Shape" fill="#FFF6D1"></path>
                        <path d="M10.5491688,27.5530875 L10.4041588,24.050612 L31.7206203,3.61950488 L55.7322047,23.2354429 L55.9372807,26.1969143"
                              id="Shape"></path>
                        <path d="M1.26853247,49.2976228 L1.41354242,51.48667 L62.3177181,51.1947971 L62.1727082,48.2760675 L1.26853247,49.2976228 Z"
                              id="Shape" fill="#EFB24B"></path>
                        <path d="M0.086330219,48.9079666 L9.75415177,41.9511659 L55.7495537,41.9511659 L63.9437204,48.340405 L0.086330219,48.9079666 Z"
                              id="Shape" fill="#8B572A"></path>
                        <path d="M17.7464559,34.3316735 L17.9421033,36.5040635 L29.2876754,36.4135157 L29.4833199,34.328711 L17.7464559,34.3316735 Z"
                              id="Shape" fill="#8B572A"></path>
                        <path d="M37.757828,33.6019911 L37.8084654,36.0412142 L49.2990474,35.8297698 L49.494692,33.744965 L37.757828,33.6019911 Z"
                              id="Shape" fill="#8B572A"></path>
                        <path d="M35.0026391,66.4376989 L35.433771,68.5245993 L54.3864574,68.2276682 L54.7150499,66.1428634 L35.0026391,66.4376989 Z"
                              id="Shape" fill="#8B572A"></path>
                    </g>
                </g>
            </g>
            <text id="H---u" font-family="AmericanTypewriter-CondensedLight, American Typewriter" font-size="177"
                  font-style="condensed" font-weight="300" line-spacing="132" letter-spacing="-7.36000013"
                  fill="#8F7140">
                <tspan x="0" y="167">R</tspan>
                <tspan x="205.084999" y="167">us</tspan>
            </text>
            <g id="Group-3" transform="translate(306.000000, 0.000000)" filter="url(#filter-1)" fill="#8F7140">
                <path d="M119,170.613998 C119,170.613998 78.3440228,170.614 74.0400013,170.614 C69.915314,170.614 66.6425134,169.851841 64.2215013,168.3275 C61.8004892,166.803159 59.8726751,164.696013 58.4380013,162.006 C57.0033274,159.315987 56.0618369,156.132852 55.6135013,152.4565 C55.1651657,148.780148 54.9410013,144.790022 54.9410013,140.486 L54.9410013,44.453 L0,44.4529991 L0,39.0730019 L54.9410013,39.073 L54.9410013,0.875 L60.8590013,0.875 L60.8590013,39.073 L119,39.0730019 L119,44.4529991 L60.8590013,44.453 L60.8590013,140.486 C60.8590013,149.273377 61.8901576,155.639647 63.9525013,159.585 C66.0148449,163.530353 69.6463086,165.503 74.8470013,165.503 C76.4610094,165.503 79.1169906,165.323665 81,164.964996 C82.8830094,164.606328 117.565326,165.861667 119,164.964996 L119,170.613998 Z"
                      id="t"></path>
            </g>
            <text id=".in" font-family="AvenirNextCondensed-DemiBold, Avenir Next Condensed" font-size="32"
                  font-style="condensed" font-weight="500" letter-spacing="4.67999983" fill="#8F7140">
                <tspan x="375" y="159">.in</tspan>
            </text>
        </g>
    </g>
</svg>